<?xml version="1.0" encoding="UTF-8" standalone="no"?>
<!-- Created with Inkscape (http://www.inkscape.org/) -->
<svg
   xmlns:dc="http://purl.org/dc/elements/1.1/"
   xmlns:cc="http://web.resource.org/cc/"
   xmlns:rdf="http://www.w3.org/1999/02/22-rdf-syntax-ns#"
   xmlns:svg="http://www.w3.org/2000/svg"
   xmlns="http://www.w3.org/2000/svg"
   xmlns:sodipodi="http://sodipodi.sourceforge.net/DTD/sodipodi-0.dtd"
   xmlns:inkscape="http://www.inkscape.org/namespaces/inkscape"
   width="311.111"
   height="100"
   id="svg21986"
   sodipodi:version="0.32"
   inkscape:version="0.44"
   version="1.0"
   sodipodi:docbase="E:\Logos"
   sodipodi:docname="CHIP-Logo.svg">
  <defs
     id="defs21988" />
  <sodipodi:namedview
     id="base"
     pagecolor="#ffffff"
     bordercolor="#666666"
     borderopacity="1.0"
     inkscape:pageopacity="0.0"
     inkscape:pageshadow="2"
     inkscape:zoom="0.35"
     inkscape:cx="350"
     inkscape:cy="520"
     inkscape:document-units="px"
     inkscape:current-layer="layer1"
     inkscape:window-width="176"
     inkscape:window-height="100"
     inkscape:window-x="149"
     inkscape:window-y="210" />
  <metadata
     id="metadata21991">
    <rdf:RDF>
      <cc:Work
         rdf:about="">
        <dc:format>image/svg+xml</dc:format>
        <dc:type
           rdf:resource="http://purl.org/dc/dcmitype/StillImage" />
      </cc:Work>
    </rdf:RDF>
  </metadata>
  <g
     inkscape:label="Ebene 1"
     inkscape:groupmode="layer"
     id="layer1"
     transform="translate(223.6038,-595.5916)">
    <g
       id="g22003">
      <path
         style="font-size:3.49419999px;letter-spacing:0;word-spacing:0.10133;fill:#ec1c23;fill-rule:nonzero;stroke:none;stroke-width:0.49900001;stroke-linecap:butt;stroke-linejoin:miter;stroke-miterlimit:10;stroke-dasharray:none;font-family:fnt1, &quot;FranklinGothic&quot;, Arial"
         d="M 402.07814,764.70273 C 402.07814,759.09527 406.50506,754.07794 412.11259,754.07794 L 503.60375,754.07794 L 503.60375,595.59159 L -223.60376,595.59159 L -223.60376,829.33686 L 402.07814,828.74666 L 402.07814,764.70273"
         class="ps04"
         id="path21022" />
      <path
         style="font-size:3.49419999px;letter-spacing:0;word-spacing:0.10133;fill:black;fill-rule:nonzero;stroke:none;stroke-width:0.49900001;stroke-linecap:butt;stroke-linejoin:miter;stroke-miterlimit:10;stroke-dasharray:none;font-family:fnt1, &quot;FranklinGothic&quot;, Arial"
         d="M -48.294756,681.47522 L -27.045179,681.47522 C -23.503583,681.47522 -20.552323,678.52396 -20.552323,674.9823 L -20.25712,674.9823 L -20.25712,636.02481 C -20.25712,628.64649 -26.15978,622.74383 -33.538105,622.74383 L -173.43108,622.74383 C -180.8094,622.74383 -186.417,628.64649 -186.417,636.02481 L -186.417,786.24751 C -186.417,793.62584 -180.8094,799.5285 -173.43108,799.5285 L -33.538105,799.5285 C -26.15978,799.5285 -20.25712,793.62584 -20.25712,786.24751 L -20.25712,749.65102 C -20.25712,745.81429 -23.20852,742.86289 -27.045179,742.86289 L -48.294756,742.86289 C -51.836421,742.86289 -55.082745,745.81429 -55.082745,749.65102 L -54.787682,756.73414 C -54.787682,762.932 -59.805012,767.94919 -66.002736,767.94919 L -110.56782,767.94919 C -116.76561,767.94919 -121.48767,762.932 -121.48767,756.73414 L -121.48767,723.38411 L -151.59131,693.87088 L -151.59131,664.65271 C -151.59131,658.75005 -146.57405,653.73272 -140.67139,653.73272 L -66.002736,653.73272 C -59.805012,653.73272 -54.787682,658.75005 -54.787682,664.65271 L -55.082745,674.9823 C -55.082745,678.52396 -51.836421,681.47522 -48.294756,681.47522"
         class="ps05 ps10 ps22"
         id="path21024" />
      <path
         style="font-size:3.49419999px;letter-spacing:0;word-spacing:0.10133;fill:black;fill-rule:nonzero;stroke:none;stroke-width:0.49900001;stroke-linecap:butt;stroke-linejoin:miter;stroke-miterlimit:10;stroke-dasharray:none;font-family:fnt1, &quot;FranklinGothic&quot;, Arial"
         d="M 173.05486,622.74383 L 151.51022,622.74383 C 147.96862,622.74383 145.01729,625.69516 145.01729,629.23675 L 145.01729,687.96822 C 145.01729,694.16594 140.00003,699.18327 134.09737,699.18327 L 58.838525,699.18327 C 52.640662,699.18327 47.623471,694.16594 47.623471,687.96822 L 47.623471,629.23675 C 47.623471,625.69516 44.672071,622.74383 40.835412,622.74383 L 19.585835,622.74383 C 15.749106,622.74383 13.092909,625.69516 13.092909,629.23675 L 13.092909,786.24751 C 13.092909,793.62584 18.995569,799.5285 26.373894,799.5285 L 64.741185,799.5285 C 72.11951,799.5285 78.02217,793.62584 78.02217,786.24751 L 78.02217,741.68243 L 78.317233,741.09216 C 78.317233,735.1895 83.334564,730.76244 89.237155,730.76244 L 133.80224,730.76244 C 140.00003,730.76244 145.01729,735.77977 145.01729,741.68243 L 145.01729,741.09216 L 145.01729,792.74037 C 145.01729,796.5771 147.96862,799.5285 151.51022,799.5285 L 173.05486,799.5285 C 176.59652,799.5285 179.54785,796.5771 179.54785,792.74037 L 179.54785,629.23675 C 179.54785,625.69516 176.59652,622.74383 173.05486,622.74383"
         class="ps05 ps10 ps22"
         id="path21026" />
      <path
         style="font-size:3.49419999px;letter-spacing:0;word-spacing:0.10133;fill:black;fill-rule:nonzero;stroke:none;stroke-width:0.49900001;stroke-linecap:butt;stroke-linejoin:miter;stroke-miterlimit:10;stroke-dasharray:none;font-family:fnt1, &quot;FranklinGothic&quot;, Arial"
         d="M 250.08457,694.16594 L 250.08457,629.23675 C 250.08457,625.69516 247.13331,622.74383 243.59172,622.74383 L 221.45674,622.74383 C 217.91514,622.74383 214.66868,625.69516 214.66868,629.23675 L 214.66868,786.24751 C 214.66868,793.62584 220.57134,799.5285 227.65453,799.5285 L 266.61209,799.5285 C 273.99035,799.5285 279.89308,793.62584 279.89308,786.24751 L 279.89308,723.97438 L 250.08457,694.16594"
         class="ps05 ps10 ps22"
         id="path21028" />
      <path
         style="font-size:3.49419999px;letter-spacing:0;word-spacing:0.10133;fill:black;fill-rule:nonzero;stroke:none;stroke-width:0.49900001;stroke-linecap:butt;stroke-linejoin:miter;stroke-miterlimit:10;stroke-dasharray:none;font-family:fnt1, &quot;FranklinGothic&quot;, Arial"
         d="M 464.056,622.74383 L 325.93375,622.74383 C 318.55543,622.74383 312.65277,628.64649 312.65277,636.02481 L 312.65277,786.24751 C 312.65277,793.62584 318.55543,799.5285 325.93375,799.5285 L 364.89138,799.5285 C 372.26964,799.5285 378.17237,793.62584 378.17237,786.24751 L 378.17237,741.09216 C 378.17237,735.1895 383.18956,730.17217 389.09222,730.17217 L 464.056,730.17217 C 471.43433,730.17217 477.33699,724.26951 477.33699,716.89118 L 477.33699,636.02481 C 477.33699,628.64649 471.43433,622.74383 464.056,622.74383 z M 443.69182,691.80495 C 443.69182,695.64161 440.74049,698.59301 437.19897,698.59301 L 353.38119,698.59301 C 349.83953,698.59301 346.88827,695.64161 346.88827,691.80495 L 346.88827,659.93058 C 346.88827,656.09386 349.83953,653.14253 353.38119,653.14253 L 437.19897,653.14253 C 440.74049,653.14253 443.69182,656.09386 443.69182,659.93058 L 443.69182,691.80495"
         class="ps05 ps10 ps22"
         id="path21030" />
      <path
         style="font-size:3.49419999px;letter-spacing:0;word-spacing:0.10133;fill:white;fill-rule:nonzero;stroke:none;stroke-width:0.49900001;stroke-linecap:butt;stroke-linejoin:miter;stroke-miterlimit:10;stroke-dasharray:none;font-family:fnt1, &quot;FranklinGothic&quot;, Arial"
         d="M -51.541219,678.81903 L -30.291642,678.81903 C -26.454913,678.81903 -23.798716,676.16283 -23.503583,672.6213 L -23.503583,672.6213 L -23.503583,633.36861 C -23.503583,625.99029 -29.406243,620.08763 -36.784568,620.08763 L -176.67754,620.08763 C -183.7608,620.08763 -189.66346,625.99029 -189.66346,633.36861 L -189.66346,783.59131 C -189.66346,790.96964 -183.7608,796.8723 -176.67754,796.8723 L -36.784568,796.8723 C -29.406243,796.8723 -23.503583,790.96964 -23.503583,783.59131 L -23.503583,746.99482 C -23.503583,743.45316 -26.454913,740.50189 -30.291642,740.50189 L -51.541219,740.50189 C -55.082745,740.50189 -58.034145,743.45316 -58.034145,746.99482 L -58.034145,754.37315 C -58.034145,760.27581 -63.051336,765.293 -69.249199,765.293 L -113.81428,765.293 C -119.71694,765.293 -124.7342,760.27581 -124.7342,754.37315 L -124.7342,721.02312 L -154.8377,691.21468 L -154.8377,662.29158 C -154.8377,656.09386 -149.82051,651.07653 -143.91785,651.07653 L -69.249199,651.07653 C -63.051336,651.07653 -58.034145,656.09386 -58.034145,662.29158 L -58.034145,672.3261 C -58.034145,676.16283 -55.082745,678.81903 -51.541219,678.81903"
         class="ps06 ps10 ps22"
         id="path21032" />
      <path
         style="font-size:3.49419999px;letter-spacing:0;word-spacing:0.10133;fill:white;fill-rule:nonzero;stroke:none;stroke-width:0.49900001;stroke-linecap:butt;stroke-linejoin:miter;stroke-miterlimit:10;stroke-dasharray:none;font-family:fnt1, &quot;FranklinGothic&quot;, Arial"
         d="M 169.80853,620.08763 L 148.26376,620.08763 C 144.72216,620.08763 141.77083,623.03896 141.77083,626.58056 L 141.77083,685.60709 C 141.77083,691.50975 137.0487,696.52708 130.85091,696.52708 L 55.592062,696.52708 C 49.689402,696.52708 44.377008,691.50975 44.377008,685.60709 L 44.377008,626.58056 C 44.377008,623.03896 41.425678,620.08763 37.588949,620.08763 L 16.339372,620.08763 C 12.502643,620.08763 9.8464462,623.03896 9.8464462,626.58056 L 9.8464462,783.59131 C 9.8464462,790.96964 15.749106,796.8723 23.127431,796.8723 L 61.789785,796.8723 C 68.873047,796.8723 74.775707,790.96964 74.775707,783.59131 L 74.775707,739.02623 L 75.07077,738.43596 C 75.07077,732.5333 80.088101,728.10624 86.285825,728.10624 L 130.55584,728.10624 C 136.75357,728.10624 141.77083,733.12357 141.77083,739.02623 L 141.77083,738.43596 L 141.77083,790.3793 C 141.77083,793.9209 144.72216,796.8723 148.26376,796.8723 L 169.80853,796.8723 C 173.35006,796.8723 176.30139,793.9209 176.30139,790.3793 L 176.30139,626.58056 C 176.30139,623.03896 173.35006,620.08763 169.80853,620.08763"
         class="ps06 ps10 ps22"
         id="path21034" />
      <path
         style="font-size:3.49419999px;letter-spacing:0;word-spacing:0.10133;fill:white;fill-rule:nonzero;stroke:none;stroke-width:0.49900001;stroke-linecap:butt;stroke-linejoin:miter;stroke-miterlimit:10;stroke-dasharray:none;font-family:fnt1, &quot;FranklinGothic&quot;, Arial"
         d="M 246.83811,691.50975 L 246.83811,626.58056 C 246.83811,623.03896 243.88685,620.08763 240.34525,620.08763 L 218.21021,620.08763 C 214.66868,620.08763 211.42222,623.03896 211.42222,626.58056 L 211.42222,783.59131 C 211.42222,790.96964 217.32488,796.8723 224.7032,796.8723 L 263.36556,796.8723 C 270.74388,796.8723 276.64654,790.96964 276.64654,783.59131 L 276.64654,721.61331 L 246.83811,691.50975"
         class="ps06 ps10 ps22"
         id="path21036" />
      <path
         style="font-size:3.49419999px;letter-spacing:0;word-spacing:0.10133;fill:white;fill-rule:nonzero;stroke:none;stroke-width:0.49900001;stroke-linecap:butt;stroke-linejoin:miter;stroke-miterlimit:10;stroke-dasharray:none;font-family:fnt1, &quot;FranklinGothic&quot;, Arial"
         d="M 461.10474,620.08763 L 322.68729,620.08763 C 315.30897,620.08763 309.40631,625.99029 309.40631,633.36861 L 309.40631,783.59131 C 309.40631,790.96964 315.30897,796.8723 322.68729,796.8723 L 361.64485,796.8723 C 369.02317,796.8723 374.92583,790.96964 374.92583,783.59131 L 374.92583,738.43596 C 374.92583,732.5333 379.94316,727.81118 386.14096,727.81118 L 461.10474,727.81118 C 468.18786,727.81118 474.09052,721.61331 474.09052,714.53019 L 474.09052,633.36861 C 474.09052,625.99029 468.18786,620.08763 461.10474,620.08763 z M 440.44536,689.44382 C 440.44536,692.98541 437.49403,695.93681 433.9525,695.93681 L 350.42979,695.93681 C 346.59306,695.93681 343.6418,692.98541 343.6418,689.44382 L 343.6418,656.97919 C 343.6418,653.43766 346.59306,650.48633 350.42979,650.48633 L 433.9525,650.48633 C 437.49403,650.48633 440.44536,653.43766 440.44536,656.97919 L 440.44536,689.44382"
         class="ps06 ps10 ps22"
         id="path21038" />
    </g>
  </g>
</svg>
